<svg xmlns="http://www.w3.org/2000/svg" width="218.4" height="40" viewBox="-172.62 -31.61 819 150">
	<style>
        * {
            fill: #fff;
        }
    </style>
	<polygon points="503.56 -25.75 388.11 -25.75 388.11 15.11 423.48 15.11 423.48 112.52 468.2 112.52 468.2 15.11 503.56 15.11 "/>
	<polygon points="-127.9 71.66 -127.9 -25.75 -172.62 -25.75 -172.62 112.52 -92.54 112.52 -92.54 71.66 "/>
	<path d="M-50.98 44.41c0-0.35 0.02-0.67 0.03-1.03 -0.01-0.35-0.03-0.67-0.03-1.03V44.41zM14.23-29.48c-44.99 0-64.89 26.49-65.18 72.86 0.3 46.38 20.19 72.86 65.19 72.86 44.99 0 64.89-26.49 65.18-72.86C79.11-2.99 59.22-29.48 14.23-29.48zM14.23 77.51c-15.85 0-20.95-11.46-20.95-34.12S-1.63 9.26 14.23 9.26c15.85 0 20.94 11.46 20.94 34.12S30.08 77.51 14.23 77.51zM79.41 43.39c0 0.35 0.03 0.68 0.03 1.03v-2.06C79.44 42.71 79.41 43.03 79.41 43.39z"/>
	<polygon points="193.66 -25.75 174.37 18.64 155.09 -25.75 111.42 -25.75 174.37 118.39 237.33 -25.75 "/>
	<polygon points="370.12 112.52 307.17 -31.61 285.33 18.38 300.73 53.62 269.93 53.62 251.97 94.73 318.72 94.73 326.45 112.52 "/>
	<polygon points="646.38 112.52 583.42 -31.61 561.59 18.38 576.99 53.62 546.19 53.62 528.23 94.73 594.99 94.73 602.71 112.52 "/>
	<path d="M637.27-8.46l-2.36-4.82h-1.71v4.82h-2.34v-12.08h4.73c2.45 0 3.92 1.67 3.92 3.69 0 1.7-1.03 2.75-2.22 3.18l2.71 5.21H637.27zM635.42-18.44h-2.22v3.19h2.23c1.05 0 1.72-0.66 1.72-1.6C637.14-17.77 636.47-18.44 635.42-18.44z"/>
	<path d="M634.68-3.24c-6.21 0-11.26-5.05-11.26-11.26 0-6.21 5.05-11.26 11.26-11.26 6.21 0 11.26 5.05 11.26 11.26C645.94-8.29 640.89-3.24 634.68-3.24zM634.68-24.27c-5.39 0-9.78 4.39-9.78 9.78 0 5.39 4.39 9.78 9.78 9.78 5.39 0 9.78-4.39 9.78-9.78C644.46-19.89 640.07-24.27 634.68-24.27z"/>
</svg>
